<?xml version="1.0" encoding="UTF-8" standalone="no"?>
<svg
   xmlns:dc="http://purl.org/dc/elements/1.1/"
   xmlns:cc="http://creativecommons.org/ns#"
   xmlns:rdf="http://www.w3.org/1999/02/22-rdf-syntax-ns#"
   xmlns:svg="http://www.w3.org/2000/svg"
   xmlns="http://www.w3.org/2000/svg"
   viewBox="0 0 576 376"
   height="376"
   width="576"
   xml:space="preserve"
   id="svg2"
   version="1.1"><metadata
     id="metadata8"><rdf:RDF><cc:Work
         rdf:about=""><dc:format>image/svg+xml</dc:format><dc:type
           rdf:resource="http://purl.org/dc/dcmitype/StillImage" /></cc:Work></rdf:RDF></metadata><defs
     id="defs6"><clipPath
       id="clipPath18"
       clipPathUnits="userSpaceOnUse"><path
         style="clip-rule:evenodd"
         id="path16"
         d="M 0,0 H 432 V 281.77039 H 0 Z" /></clipPath><clipPath
       id="clipPath30"
       clipPathUnits="userSpaceOnUse"><path
         style="clip-rule:evenodd"
         id="path28"
         d="M 0,0 H 432 V 281.05157 H 0 Z" /></clipPath></defs><g
     transform="matrix(1.3333333,0,0,1.3333333,0,9.4e-6)"
     id="g10"><g
       id="g12"><g
         clip-path="url(#clipPath18)"
         id="g14"><g
           transform="scale(0.71880198)"
           id="g20"><path
             id="path22"
             style="fill:#ffffff;fill-opacity:1;fill-rule:nonzero;stroke:none"
             d="M 0,0 H 601 V 392 H 0 Z" /></g></g></g><g
       id="g24"><g
         clip-path="url(#clipPath30)"
         id="g26"><g
           transform="matrix(0.71880198,0,0,0.71880198,0.35940099,0.35940099)"
           id="g32"><path
             id="path34"
             style="fill:none;stroke:#000000;stroke-width:1;stroke-linecap:butt;stroke-linejoin:miter;stroke-miterlimit:10;stroke-dasharray:none;stroke-opacity:1"
             d="M 467,80 V 15 H 237.37" /><path
             id="path36"
             style="fill:#000000;fill-opacity:1;fill-rule:nonzero;stroke:none"
             d="m 232.12,15 7,-3.5 -1.75,3.5 1.75,3.5 z" /><path
             id="path38"
             style="fill:none;stroke:#000000;stroke-width:1;stroke-linecap:butt;stroke-linejoin:miter;stroke-miterlimit:10;stroke-dasharray:none;stroke-opacity:1"
             d="m 232.12,15 7,-3.5 -1.75,3.5 1.75,3.5 z" /><path
             id="path40"
             style="fill:#000000;fill-opacity:1;fill-rule:nonzero;stroke:none"
             d="m 340.5,79.5 h 3 v 1 h -3 z m 6,0 h 3 v 1 h -3 z m 6,0 h 3 v 1 h -3 z m 6,0 h 3 v 1 h -3 z m 6,0 h 3 v 1 h -3 z m 6,0 h 3 v 1 h -3 z m 6,0 h 3 v 1 h -3 z m 6,0 h 3 v 1 h -3 z m 6,0 h 3 v 1 h -3 z m 6,0 h 3 v 1 h -3 z m 6,0 h 3 v 1 h -3 z m 6,0 h 3 v 1 h -3 z m 6,0 h 3 v 1 h -3 z m 6,0 h 3 v 1 h -3 z m 6,0 h 3 v 1 h -3 z m 6,0 h 3 v 1 h -3 z m 6,0 h 3 v 1 h -3 z m 6,0 h 3 v 1 h -3 z m 6,0 h 3 v 1 h -3 z m 6,0 h 3 v 1 h -3 z m 6,0 h 3 v 1 h -3 z m 6,0 h 3 v 1 h -3 z m 6,0 h 3 v 1 h -3 z m 6,0 h 3 v 1 h -3 z m 6,0 h 3 v 1 h -3 z m 6,0 h 3 v 1 h -3 z m 6,0 h 3 v 1 h -3 z m 6,0 h 3 v 1 h -3 z m 6,0 h 3 v 1 h -3 z m 6,0 h 3 v 1 h -3 z m 6,0 h 3 v 1 h -3 z m 6,0 h 3 v 1 h -3 z m 6,0 h 3 v 1 h -3 z m 6,0 h 3 v 1 h -3 z m 6,0 h 3 v 1 h -3 z m 6,0 h 3 v 1 h -3 z m 6,0 h 3 v 1 h -3 z m 6,0 h 3 v 1 h -3 z m 6,0 h 3 v 1 h -3 z m 6,0 h 3 v 1 h -3 z m 6,0 h 3 v 1 h -3 z m 6,0 h 3 v 1 h -3 z m 6,0 h 3 v 1 h -3 z m 6,0 H 600 V 82 h -1 v -2 h 0.5 v 0.5 h -1 z M 600,85 v 3 h -1 v -3 z m 0,6 v 3 h -1 v -3 z m 0,6 v 3 h -1 v -3 z m 0,6 v 3 h -1 v -3 z m 0,6 v 3 h -1 v -3 z m 0,6 v 3 h -1 v -3 z m 0,6 v 3 h -1 v -3 z m 0,6 v 3 h -1 v -3 z m 0,6 v 3 h -1 v -3 z m 0,6 v 3 h -1 v -3 z m 0,6 v 3 h -1 v -3 z m 0,6 v 3 h -1 v -3 z m 0,6 v 3 h -1 v -3 z m 0,6 v 3 h -1 v -3 z m 0,6 v 3 h -1 v -3 z m 0,6 v 3 h -1 v -3 z m 0,6 v 3 h -1 v -3 z m 0,6 v 3 h -1 v -3 z m 0,6 v 3 h -1 v -3 z m 0,6 v 3 h -1 v -3 z m 0,6 v 3 h -1 v -3 z m 0,6 v 3 h -1 v -3 z m 0,6 v 3 h -1 v -3 z m 0,6 v 3 h -1 v -3 z m 0,6 v 3 h -1 v -3 z m 0,6 v 3 h -1 v -3 z m 0,6 v 2.99998 h -1 V 241 Z m 0,6 v 3 h -1 v -3 z m 0,6 v 3 h -1 v -3 z m 0,6 v 3 h -1 v -3 z m 0,6 v 3 h -1 v -3 z m 0,6 v 3 h -1 v -3 z m 0,6 v 3 h -1 v -3 z m 0,6 v 3 h -1 v -3 z m 0,6 v 3 h -1 v -3 z m 0,6 v 3 h -1 v -3 z m 0,6 v 3 h -1 v -3 z m 0,6 v 3 h -1 v -3 z m 0,6 v 3 h -1 v -3 z m 0,6 v 3 h -1 v -3 z m 0,6 v 3 h -1 v -3 z m 0,6 v 3 h -1 v -3 z m 0,6 v 3 h -1 v -3 z m 0,6 v 3 h -1 v -3 z m 0,6 v 3 h -1 v -3 z m 0,6 v 3 h -1 v -3 z m 0,6 v 3 h -1 v -3 z m 0,6 v 3 h -1 v -3 z m 0,6 v 3 h -1 v -3 z m 0,6 v 3 h -1 v -3 z m 0,6 v 3 h -1 v -3 z m -1.5,5.5 h -3 v -1 h 3 z m -6,0 h -3 v -1 h 3 z m -6,0 h -3 v -1 h 3 z m -6,0 h -3 v -1 h 3 z m -6,0 h -3 v -1 h 3 z m -6,0 h -3 v -1 h 3 z m -6,0 h -3 v -1 h 3 z m -6,0 h -3 v -1 h 3 z m -6,0 h -3 v -1 h 3 z m -6,0 h -3 v -1 h 3 z m -6,0 h -3 v -1 h 3 z m -6,0 h -3 v -1 h 3 z m -6,0 h -3 v -1 h 3 z m -6,0 h -3 v -1 h 3 z m -6,0 h -3 v -1 h 3 z m -6,0 h -3 v -1 h 3 z m -6,0 h -3 v -1 h 3 z m -6,0 h -3 v -1 h 3 z m -6,0 h -3 v -1 h 3 z m -6,0 h -3 v -1 h 3 z m -6,0 h -3 v -1 h 3 z m -6,0 h -3 v -1 h 3 z m -6,0 h -3 v -1 h 3 z m -6,0 h -3 v -1 h 3 z m -6,0 h -3 v -1 h 3 z m -6,0 h -3 v -1 h 3 z m -6,0 h -3 v -1 h 3 z m -6,0 h -3 v -1 h 3 z m -6,0 h -3 v -1 h 3 z m -6,0 h -3 v -1 h 3 z m -6,0 h -3 v -1 h 3 z m -6,0 h -3 v -1 h 3 z m -6,0 h -3 v -1 h 3 z m -6,0 h -3 v -1 h 3 z m -6,0 h -3 v -1 h 3 z m -6,0 h -3 v -1 h 3 z m -6,0 h -3 v -1 h 3 z m -6,0 h -3 v -1 h 3 z m -6,0 h -3 v -1 h 3 z m -6,0 h -3 v -1 h 3 z m -6,0 h -3 v -1 h 3 z m -6,0 h -3 v -1 h 3 z m -6,0 h -3 v -1 h 3 z m -6,0 h -3 v -1 h 3 z M 334,390 v -3 h 1 v 3 z m 0,-6 v -3 h 1 v 3 z m 0,-6 v -3 h 1 v 3 z m 0,-6 v -3 h 1 v 3 z m 0,-6 v -3 h 1 v 3 z m 0,-6 v -3 h 1 v 3 z m 0,-6 v -3 h 1 v 3 z m 0,-6 v -3 h 1 v 3 z m 0,-6 v -3 h 1 v 3 z m 0,-6 v -3 h 1 v 3 z m 0,-6 v -3 h 1 v 3 z m 0,-6 v -3 h 1 v 3 z m 0,-6 v -3 h 1 v 3 z m 0,-6 v -3 h 1 v 3 z m 0,-6 v -3 h 1 v 3 z m 0,-6 v -3 h 1 v 3 z m 0,-6 v -3 h 1 v 3 z m 0,-6 v -3 h 1 v 3 z m 0,-6 v -3 h 1 v 3 z m 0,-6 v -3 h 1 v 3 z m 0,-6 v -3 h 1 v 3 z m 0,-6 v -3 h 1 v 3 z m 0,-6 v -3 h 1 v 3 z m 0,-6 v -3 h 1 v 3 z m 0,-6 v -3 h 1 v 3 z m 0,-6 v -3 h 1 v 3 z m 0,-6 v -3 h 1 v 3 z m 0,-6 v -3.00002 h 1 V 228 Z m 0,-6 v -3 h 1 v 3 z m 0,-6 v -3 h 1 v 3 z m 0,-6 v -2.99998 h 1 V 210 Z m 0,-6 v -3 h 1 v 3 z m 0,-6 v -3 h 1 v 3 z m 0,-6 v -3 h 1 v 3 z m 0,-6.00002 V 183 h 1 v 2.99998 z M 334,180 v -3 h 1 v 3 z m 0,-6 v -3 h 1 v 3 z m 0,-5.99998 V 165 h 1 v 3.00002 z M 334,162 v -3 h 1 v 3 z m 0,-6 v -3 h 1 v 3 z m 0,-6 v -3.00002 h 1 V 150 Z m 0,-6 v -3 h 1 v 3 z m 0,-6 v -3 h 1 v 3 z m 0,-6 v -3 h 1 v 3 z m 0,-6 v -3 h 1 v 3 z m 0,-6 v -3 h 1 v 3 z m 0,-6 v -3 h 1 v 3 z m 0,-6 v -3 h 1 v 3 z m 0,-6 v -3 h 1 v 3 z m 0,-6 v -3 h 1 v 3 z m 0,-6 v -3 h 1 v 3 z m 0,-6 v -3 h 1 v 3 z m 0.5,-4.5 h 3 v 1 h -3 z" /></g><g
           transform="scale(0.71880198)"
           id="g42"><path
             id="path44"
             style="fill:#ffffff;fill-opacity:1;fill-rule:nonzero;stroke:none"
             d="m 33.5,215 c -4e-6,2.07106 -0.732235,3.83881 -2.196701,5.30327 C 29.838833,221.76773 28.071066,222.49998 26,222.5 c -2.07107,-2e-5 -3.838837,-0.73227 -5.303303,-2.19673 C 19.232231,218.83881 18.499998,217.07106 18.5,215 c -2e-6,-2.07108 0.732231,-3.83884 2.196697,-5.3033 C 22.161163,208.23224 23.92893,207.5 26,207.5 c 2.071066,0 3.838833,0.73224 5.303299,2.1967 1.464466,1.46446 2.196697,3.23222 2.196701,5.3033 z" /><path
             id="path46"
             style="fill:none;stroke:#000000;stroke-width:1;stroke-linecap:butt;stroke-linejoin:miter;stroke-miterlimit:10;stroke-dasharray:none;stroke-opacity:1"
             d="m 33.5,215 c -4e-6,2.07106 -0.732235,3.83881 -2.196701,5.30327 C 29.838833,221.76773 28.071066,222.49998 26,222.5 c -2.07107,-2e-5 -3.838837,-0.73227 -5.303303,-2.19673 C 19.232231,218.83881 18.499998,217.07106 18.5,215 c -2e-6,-2.07108 0.732231,-3.83884 2.196697,-5.3033 C 22.161163,208.23224 23.92893,207.5 26,207.5 c 2.071066,0 3.838833,0.73224 5.303299,2.1967 1.464466,1.46446 2.196697,3.23222 2.196701,5.3033 z" /><path
             id="path48"
             style="fill:none;stroke:#000000;stroke-width:1;stroke-linecap:butt;stroke-linejoin:miter;stroke-miterlimit:10;stroke-dasharray:none;stroke-opacity:1"
             d="m 25.5,222 v 25 m 0,-20 h -15 m 15,0 h 15 m -15,20 -15,20 m 15,-20 15,20" /></g><g
           transform="matrix(0.71880198,0,0,0.71880198,0.35940099,0.35940099)"
           id="g50"><path
             id="path52"
             style="fill:#ffffff;fill-opacity:1;fill-rule:nonzero;stroke:none"
             d="m 110.5,137 h 120 v 30 h -120 z" /><path
             id="path54"
             style="fill:none;stroke:#000000;stroke-width:1;stroke-linecap:butt;stroke-linejoin:miter;stroke-miterlimit:10;stroke-dasharray:none;stroke-opacity:1"
             d="m 110.5,137 h 120 v 30 h -120 z" /></g><g
           transform="matrix(0.71880198,0,0,0.71880198,104.22629,104.94509)"
           id="g56"><text
             id="text60"
             style="font-variant:normal;font-weight:normal;font-size:12px;font-family:Helvetica;-inkscape-font-specification:Helvetica;writing-mode:lr-tb;fill:#000000;fill-opacity:1;fill-rule:nonzero;stroke:none"
             transform="translate(0.3125,11)"><tspan
               id="tspan58"
               y="0"
               x="0 8.0039062 14.677734 20.677734 27.351562 34.025391 40.699219 44.695312">Keyboard</tspan></text>
</g><g
           transform="matrix(0.71880198,0,0,0.71880198,0.35940099,0.35940099)"
           id="g62"><path
             id="path64"
             style="fill:#ffffff;fill-opacity:1;fill-rule:nonzero;stroke:none"
             d="m 110.5,307 h 120 v 30 h -120 z" /><path
             id="path66"
             style="fill:none;stroke:#000000;stroke-width:1;stroke-linecap:butt;stroke-linejoin:miter;stroke-miterlimit:10;stroke-dasharray:none;stroke-opacity:1"
             d="m 110.5,307 h 120 v 30 h -120 z" /></g><g
           transform="matrix(0.71880198,0,0,0.71880198,104.94509,227.14142)"
           id="g68"><text
             id="text72"
             style="font-variant:normal;font-weight:normal;font-size:12px;font-family:Helvetica;-inkscape-font-specification:Helvetica;writing-mode:lr-tb;fill:#000000;fill-opacity:1;fill-rule:nonzero;stroke:none"
             transform="translate(0.3125,11)"><tspan
               id="tspan70"
               y="0"
               x="0 6.6738281 14.677734 23.34375 26.677734 32.677734 36.011719 40.007812 42.673828">LED strip</tspan></text>
</g><g
           transform="matrix(0.71880198,0,0,0.71880198,0.35940099,0.35940099)"
           id="g74"><path
             id="path76"
             style="fill:#ffffff;fill-opacity:1;fill-rule:nonzero;stroke:none"
             d="m 404.5,122 h 102 c 2.48526,0 4.6066,0.87868 6.36395,2.63603 1.75739,1.75736 2.63605,3.87868 2.63605,6.36397 v 42 c 0,2.48528 -0.87866,4.60658 -2.63605,6.36394 -1.75735,1.75737 -3.87869,2.63604 -6.36395,2.63606 h -102 c -2.48529,-2e-5 -4.6066,-0.87869 -6.36395,-2.63606 C 396.37869,177.60658 395.5,175.48528 395.5,173 v -42 c 0,-2.48529 0.87869,-4.60661 2.63605,-6.36397 C 399.8934,122.87868 402.01471,122 404.5,122 Z" /><path
             id="path78"
             style="fill:none;stroke:#000000;stroke-width:1;stroke-linecap:butt;stroke-linejoin:miter;stroke-miterlimit:10;stroke-dasharray:none;stroke-opacity:1"
             d="m 404.5,122 h 102 c 2.48526,0 4.6066,0.87868 6.36395,2.63603 1.75739,1.75736 2.63605,3.87868 2.63605,6.36397 v 42 c 0,2.48528 -0.87866,4.60658 -2.63605,6.36394 -1.75735,1.75737 -3.87869,2.63604 -6.36395,2.63606 h -102 c -2.48529,-2e-5 -4.6066,-0.87869 -6.36395,-2.63606 C 396.37869,177.60658 395.5,175.48528 395.5,173 v -42 c 0,-2.48529 0.87869,-4.60661 2.63605,-6.36397 C 399.8934,122.87868 402.01471,122 404.5,122 Z" /></g><g
           transform="matrix(0.71880198,0,0,0.71880198,306.20966,104.94509)"
           id="g80"><text
             id="text84"
             style="font-variant:normal;font-weight:normal;font-size:12px;font-family:Helvetica;-inkscape-font-specification:Helvetica;writing-mode:lr-tb;fill:#000000;fill-opacity:1;fill-rule:nonzero;stroke:none"
             transform="translate(0.640625,11)"><tspan
               id="tspan82"
               y="0"
               x="0 9.9960938 16.669922 22.669922 29.34375 37.347656 43.347656 50.021484 54.017578">MuseScore</tspan></text>
</g><g
           transform="matrix(0.71880198,0,0,0.71880198,0.35940099,0.35940099)"
           id="g86"><path
             id="path88"
             style="fill:#ffffff;fill-opacity:1;fill-rule:nonzero;stroke:none"
             d="m 385.5,142 h 20 v 20 h -20 z" /><path
             id="path90"
             style="fill:none;stroke:#000000;stroke-width:1;stroke-linecap:butt;stroke-linejoin:miter;stroke-miterlimit:10;stroke-dasharray:none;stroke-opacity:1"
             d="m 385.5,142 h 20 v 20 h -20 z" /><path
             id="path92"
             style="fill:#ffffff;fill-opacity:1;fill-rule:nonzero;stroke:none"
             d="m 505.5,142 h 20 v 20 h -20 z" /><path
             id="path94"
             style="fill:none;stroke:#000000;stroke-width:1;stroke-linecap:butt;stroke-linejoin:miter;stroke-miterlimit:10;stroke-dasharray:none;stroke-opacity:1"
             d="m 505.5,142 h 20 v 20 h -20 z" /><path
             id="path96"
             style="fill:#ffffff;fill-opacity:1;fill-rule:nonzero;stroke:none"
             d="m 404.5,292 h 102 c 2.48526,0 4.6066,0.87866 6.36395,2.63602 1.75739,1.75735 2.63605,3.87866 2.63605,6.36398 v 42 c 0,2.48526 -0.87866,4.6066 -2.63605,6.36395 C 511.1066,351.12131 508.98526,352 506.5,352 h -102 c -2.48529,0 -4.6066,-0.87869 -6.36395,-2.63605 C 396.37869,347.6066 395.5,345.48526 395.5,343 v -42 c 0,-2.48532 0.87869,-4.60663 2.63605,-6.36398 C 399.8934,292.87866 402.01471,292 404.5,292 Z" /><path
             id="path98"
             style="fill:none;stroke:#000000;stroke-width:1;stroke-linecap:butt;stroke-linejoin:miter;stroke-miterlimit:10;stroke-dasharray:none;stroke-opacity:1"
             d="m 404.5,292 h 102 c 2.48526,0 4.6066,0.87866 6.36395,2.63602 1.75739,1.75735 2.63605,3.87866 2.63605,6.36398 v 42 c 0,2.48526 -0.87866,4.6066 -2.63605,6.36395 C 511.1066,351.12131 508.98526,352 506.5,352 h -102 c -2.48529,0 -4.6066,-0.87869 -6.36395,-2.63605 C 396.37869,347.6066 395.5,345.48526 395.5,343 v -42 c 0,-2.48532 0.87869,-4.60663 2.63605,-6.36398 C 399.8934,292.87866 402.01471,292 404.5,292 Z" /></g><g
           transform="matrix(0.71880198,0,0,0.71880198,304.05322,227.14142)"
           id="g100"><text
             id="text104"
             style="font-variant:normal;font-weight:normal;font-size:12px;font-family:Helvetica;-inkscape-font-specification:Helvetica;writing-mode:lr-tb;fill:#000000;fill-opacity:1;fill-rule:nonzero;stroke:none"
             transform="translate(0.359375,11)"><tspan
               id="tspan102"
               y="0"
               x="0 8.0039062 10.669922 17.34375 24.017578 30.691406 37.582031 44.255859 47.589844 54.263672 58.259766">PianoTutor+</tspan></text>
</g><g
           transform="matrix(0.71880198,0,0,0.71880198,0.35940099,0.35940099)"
           id="g106"><path
             id="path108"
             style="fill:#ffffff;fill-opacity:1;fill-rule:nonzero;stroke:none"
             d="m 505.5,312 h 20 v 20 h -20 z" /><path
             id="path110"
             style="fill:none;stroke:#000000;stroke-width:1;stroke-linecap:butt;stroke-linejoin:miter;stroke-miterlimit:10;stroke-dasharray:none;stroke-opacity:1"
             d="m 505.5,312 h 20 v 20 h -20 z" /></g><g
           transform="matrix(-0.71880198,0,0,-0.71880198,568.93176,463.26788)"
           id="g112"><path
             id="path114"
             style="fill:#ffffff;fill-opacity:1;fill-rule:nonzero;stroke:none"
             d="m 385.5,312 20,10 -20,10 z" /><path
             id="path116"
             style="fill:none;stroke:#000000;stroke-width:1;stroke-linecap:butt;stroke-linejoin:miter;stroke-miterlimit:10;stroke-dasharray:none;stroke-opacity:1"
             d="m 385.5,312 20,10 -20,10 z" /></g><g
           transform="matrix(0.71880198,0,0,0.71880198,0.35940099,0.35940099)"
           id="g118"><path
             id="path120"
             style="fill:none;stroke:#000000;stroke-width:1;stroke-linecap:butt;stroke-linejoin:miter;stroke-miterlimit:10;stroke-dasharray:none;stroke-opacity:1"
             d="M 231,152 H 379.63" /><path
             id="path122"
             style="fill:#000000;fill-opacity:1;fill-rule:nonzero;stroke:none"
             d="m 384.88,152 -7,3.5 1.75,-3.5 -1.75,-3.5 z" /><path
             id="path124"
             style="fill:none;stroke:#000000;stroke-width:1;stroke-linecap:butt;stroke-linejoin:miter;stroke-miterlimit:10;stroke-dasharray:none;stroke-opacity:1"
             d="m 384.88,152 -7,3.5 1.75,-3.5 -1.75,-3.5 z" /></g><g
           transform="matrix(0.71880198,0,0,0.71880198,200.54575,98.475868)"
           id="g126"><path
             id="path128"
             style="fill:#ffffff;fill-opacity:1;fill-rule:nonzero;stroke:none"
             d="M 0,0 H 25 V 14 H 0 Z" /><text
             id="text132"
             style="font-variant:normal;font-weight:normal;font-size:12px;font-family:Helvetica;-inkscape-font-specification:Helvetica;writing-mode:lr-tb;fill:#000000;fill-opacity:1;fill-rule:nonzero;stroke:none"
             transform="translate(0,11)"><tspan
               id="tspan130"
               y="0"
               x="0 9.9960938 13.330078 21.996094">MIDI</tspan></text>
</g><g
           transform="matrix(0.71880198,0,0,0.71880198,0.35940099,0.35940099)"
           id="g134"><path
             id="path136"
             style="fill:none;stroke:#000000;stroke-width:1;stroke-linecap:butt;stroke-linejoin:miter;stroke-miterlimit:10;stroke-dasharray:none;stroke-opacity:1"
             d="m 526,152 h 40 v 170 h -33.63" /><path
             id="path138"
             style="fill:#000000;fill-opacity:1;fill-rule:nonzero;stroke:none"
             d="m 527.12,322 7,-3.5 -1.75,3.5 1.75,3.5 z" /><path
             id="path140"
             style="fill:none;stroke:#000000;stroke-width:1;stroke-linecap:butt;stroke-linejoin:miter;stroke-miterlimit:10;stroke-dasharray:none;stroke-opacity:1"
             d="m 527.12,322 7,-3.5 -1.75,3.5 1.75,3.5 z" /></g><g
           transform="matrix(0.71880198,0,0,0.71880198,387.43427,166.76205)"
           id="g142"><path
             id="path144"
             style="fill:#ffffff;fill-opacity:1;fill-rule:nonzero;stroke:none"
             d="M 0,0 H 25 V 14 H 0 Z" /><text
             id="text148"
             style="font-variant:normal;font-weight:normal;font-size:12px;font-family:Helvetica;-inkscape-font-specification:Helvetica;writing-mode:lr-tb;fill:#000000;fill-opacity:1;fill-rule:nonzero;stroke:none"
             transform="translate(0,11)"><tspan
               id="tspan146"
               y="0"
               x="0 9.9960938 13.330078 21.996094">MIDI</tspan></text>
</g><g
           transform="matrix(0.71880198,0,0,0.71880198,0.35940099,0.35940099)"
           id="g150"><path
             id="path152"
             style="fill:none;stroke:#000000;stroke-width:1;stroke-linecap:butt;stroke-linejoin:miter;stroke-miterlimit:10;stroke-dasharray:none;stroke-opacity:1"
             d="M 386,322 H 237.37" /><path
             id="path154"
             style="fill:#000000;fill-opacity:1;fill-rule:nonzero;stroke:none"
             d="m 232.12,322 7,-3.5 -1.75,3.5 1.75,3.5 z" /><path
             id="path156"
             style="fill:none;stroke:#000000;stroke-width:1;stroke-linecap:butt;stroke-linejoin:miter;stroke-miterlimit:10;stroke-dasharray:none;stroke-opacity:1"
             d="m 232.12,322 7,-3.5 -1.75,3.5 1.75,3.5 z" /></g><g
           transform="matrix(0.71880198,0,0,0.71880198,199.10815,220.67221)"
           id="g158"><path
             id="path160"
             style="fill:#ffffff;fill-opacity:1;fill-rule:nonzero;stroke:none"
             d="M 0,0 H 30 V 14 H 0 Z" /><text
             id="text164"
             style="font-variant:normal;font-weight:normal;font-size:12px;font-family:Helvetica;-inkscape-font-specification:Helvetica;writing-mode:lr-tb;fill:#000000;fill-opacity:1;fill-rule:nonzero;stroke:none"
             transform="translate(0,11)"><tspan
               id="tspan162"
               y="0"
               x="0 9.3339844 17.337891 20.671875">GPIO</tspan></text>
</g><g
           transform="matrix(0.71880198,0,0,0.71880198,0.35940099,0.35940099)"
           id="g166"><path
             id="path168"
             style="fill:none;stroke:#000000;stroke-width:1;stroke-linecap:butt;stroke-linejoin:miter;stroke-miterlimit:10;stroke-dasharray:none;stroke-opacity:1"
             d="m 51,237 h 30 v -85 h 23.63" /><path
             id="path170"
             style="fill:#000000;fill-opacity:1;fill-rule:nonzero;stroke:none"
             d="m 109.88,152 -7,3.5 1.75,-3.5 -1.75,-3.5 z" /><path
             id="path172"
             style="fill:none;stroke:#000000;stroke-width:1;stroke-linecap:butt;stroke-linejoin:miter;stroke-miterlimit:10;stroke-dasharray:none;stroke-opacity:1"
             d="m 109.88,152 -7,3.5 1.75,-3.5 -1.75,-3.5 z" /><path
             id="path174"
             style="fill:none;stroke:#000000;stroke-width:1;stroke-linecap:butt;stroke-linejoin:miter;stroke-miterlimit:10;stroke-dasharray:none;stroke-opacity:1"
             d="M 111,322 H 26 v -38.63" /><path
             id="path176"
             style="fill:#000000;fill-opacity:1;fill-rule:nonzero;stroke:none"
             d="m 26,278.12 3.5,7 -3.5,-1.75 -3.5,1.75 z" /><path
             id="path178"
             style="fill:none;stroke:#000000;stroke-width:1;stroke-linecap:butt;stroke-linejoin:miter;stroke-miterlimit:10;stroke-dasharray:none;stroke-opacity:1"
             d="m 26,278.12 3.5,7 -3.5,-1.75 -3.5,1.75 z" /></g><g
           transform="matrix(0.71880198,0,0,0.71880198,247.98668,65.41098)"
           id="g180"><text
             id="text184"
             style="font-variant:normal;font-weight:normal;font-size:12px;font-family:Helvetica;-inkscape-font-specification:Helvetica;writing-mode:lr-tb;fill:#000000;fill-opacity:1;fill-rule:nonzero;stroke:none"
             transform="translate(0.3125,11)"><tspan
               id="tspan182"
               y="0"
               x="0 8.6660156 15.339844 21.339844 28.013672 34.6875 41.361328 45.357422 49.353516 55.353516 58.6875 66.691406">Raspberry Pi</tspan></text>
</g><g
           transform="matrix(0.71880198,0,0,0.71880198,0.35940099,0.35940099)"
           id="g186"><path
             id="path188"
             style="fill:none;stroke:#000000;stroke-width:1;stroke-linecap:butt;stroke-linejoin:miter;stroke-miterlimit:10;stroke-dasharray:none;stroke-opacity:1"
             d="M 111,15 H 26 v 175.63" /><path
             id="path190"
             style="fill:#000000;fill-opacity:1;fill-rule:nonzero;stroke:none"
             d="m 26,195.88 -3.5,-7 3.5,1.75 3.5,-1.75 z" /><path
             id="path192"
             style="fill:none;stroke:#000000;stroke-width:1;stroke-linecap:butt;stroke-linejoin:miter;stroke-miterlimit:10;stroke-dasharray:none;stroke-opacity:1"
             d="m 26,195.88 -3.5,-7 3.5,1.75 3.5,-1.75 z" /><path
             id="path194"
             style="fill:#ffffff;fill-opacity:1;fill-rule:nonzero;stroke:none"
             d="m 110.5,0 h 120 v 30 h -120 z" /><path
             id="path196"
             style="fill:none;stroke:#000000;stroke-width:1;stroke-linecap:butt;stroke-linejoin:miter;stroke-miterlimit:10;stroke-dasharray:none;stroke-opacity:1"
             d="m 110.5,0 h 120 v 30 h -120 z" /></g><g
           transform="matrix(0.71880198,0,0,0.71880198,108.5391,6.4692178)"
           id="g198"><text
             id="text202"
             style="font-variant:normal;font-weight:normal;font-size:12px;font-family:Helvetica;-inkscape-font-specification:Helvetica;writing-mode:lr-tb;fill:#000000;fill-opacity:1;fill-rule:nonzero;stroke:none"
             transform="translate(0.3125,11)"><tspan
               id="tspan200"
               y="0"
               x="0 8.6660156 11.332031 17.332031 24.005859 26.671875 33.345703">Display</tspan></text>
</g></g></g></g></svg>